<?xml version="1.0" encoding="iso-8859-1"?>
<!-- Generator: Adobe Illustrator 19.0.0, SVG Export Plug-In . SVG Version: 6.00 Build 0)  -->
<svg version="1.1" id="Layer_1" xmlns="http://www.w3.org/2000/svg" xmlns:xlink="http://www.w3.org/1999/xlink" x="0px" y="0px"
	 viewBox="0 0 512.001 512.001" style="enable-background:new 0 0 512.001 512.001;" xml:space="preserve">
<path d="M57.877,503.084c-0.954,0-1.923-0.088-2.862-0.277c-0.939-0.189-1.864-0.47-2.744-0.837
	c-0.895-0.367-1.746-0.822-2.539-1.35c-0.807-0.543-1.556-1.159-2.231-1.835c-0.675-0.675-1.291-1.424-1.82-2.231
	c-0.528-0.793-0.983-1.644-1.35-2.526c-0.367-0.894-0.66-1.818-0.837-2.744c-0.191-0.952-0.294-1.923-0.294-2.876
	c0-0.952,0.103-1.923,0.294-2.86c0.176-0.941,0.47-1.865,0.837-2.744c0.367-0.895,0.822-1.746,1.35-2.539
	c0.528-0.807,1.145-1.556,1.82-2.231s1.424-1.291,2.231-1.82c0.792-0.528,1.644-0.983,2.539-1.35
	c0.881-0.367,1.805-0.646,2.744-0.837c1.893-0.382,3.83-0.382,5.724,0c0.939,0.191,1.864,0.47,2.744,0.837
	c0.895,0.367,1.746,0.822,2.539,1.35c0.807,0.528,1.556,1.145,2.231,1.82s1.291,1.424,1.82,2.231
	c0.528,0.793,0.983,1.644,1.35,2.539c0.367,0.881,0.66,1.804,0.851,2.744c0.191,0.939,0.279,1.908,0.279,2.86
	c0,0.954-0.088,1.924-0.279,2.876c-0.191,0.926-0.484,1.851-0.851,2.744c-0.367,0.882-0.822,1.733-1.35,2.526
	c-0.528,0.807-1.145,1.556-1.82,2.231c-0.675,0.675-1.424,1.292-2.231,1.835c-0.792,0.528-1.644,0.983-2.539,1.35
	c-0.881,0.367-1.805,0.646-2.744,0.837C59.8,502.997,58.83,503.084,57.877,503.084z"/>
<path d="M461.462,503.084c-0.954,0-1.924-0.088-2.862-0.277c-0.938-0.189-1.864-0.47-2.744-0.837
	c-0.895-0.367-1.745-0.822-2.537-1.35c-0.809-0.543-1.557-1.159-2.232-1.835c-0.675-0.675-1.292-1.424-1.82-2.231
	c-0.543-0.793-0.983-1.644-1.35-2.526c-0.367-0.894-0.66-1.818-0.851-2.744c-0.191-0.952-0.277-1.923-0.277-2.876
	c0-0.952,0.088-1.923,0.277-2.86c0.191-0.941,0.484-1.865,0.851-2.744c0.367-0.895,0.823-1.746,1.35-2.539
	c0.528-0.807,1.145-1.556,1.82-2.231c0.675-0.675,1.424-1.291,2.232-1.82c0.793-0.528,1.642-0.983,2.537-1.35
	c0.882-0.367,1.805-0.646,2.744-0.837c1.879-0.382,3.83-0.382,5.724,0c0.939,0.191,1.864,0.47,2.743,0.837
	c0.895,0.367,1.746,0.822,2.539,1.35c0.807,0.528,1.556,1.145,2.231,1.82c0.677,0.675,1.293,1.424,1.82,2.231
	c0.528,0.793,0.983,1.644,1.35,2.539c0.367,0.881,0.66,1.804,0.837,2.744c0.191,0.939,0.294,1.908,0.294,2.86
	c0,0.954-0.103,1.924-0.294,2.876c-0.191,0.926-0.47,1.851-0.837,2.744c-0.367,0.882-0.822,1.733-1.35,2.526
	c-0.527,0.807-1.143,1.556-1.82,2.231c-0.675,0.675-1.424,1.292-2.231,1.835c-0.793,0.528-1.644,0.983-2.539,1.35
	c-0.881,0.367-1.804,0.646-2.743,0.837C463.383,502.997,462.415,503.084,461.462,503.084z"/>
<rect x="308.589" y="194.162" style="fill:#F4D15A;" width="153.113" height="78.761"/>
<rect x="308.589" y="272.927" style="fill:#D8766A;" width="153.113" height="78.761"/>
<path style="fill:#E7AD7C;" d="M118.383,118.653l4.767,188.446h176.179l4.767-188.446c1.224-52.136-40.706-95.06-92.855-95.06l0,0
	C159.089,23.594,117.16,66.519,118.383,118.653z"/>
<g>
	<polygon style="fill:#D8766A;" points="118.421,120.169 14.676,120.169 14.676,194.165 120.293,194.165 	"/>
	<polygon style="fill:#D8766A;" points="304.057,120.169 302.184,194.165 497.324,194.165 497.324,120.169 	"/>
</g>
<rect x="123.145" y="240.494" style="fill:#F4D15A;" width="176.183" height="66.599"/>
<path d="M497.324,105.494H318.22c-2.419-24.123-12.812-46.539-30.041-64.176c-20.408-20.894-47.733-32.4-76.941-32.4
	s-56.533,11.507-76.941,32.4c-17.229,17.639-27.621,40.055-30.04,64.176H14.676C6.57,105.494,0,112.065,0,120.169v73.994
	c0,8.104,6.57,14.676,14.676,14.676h28.525v235.546c0,8.104,6.57,14.676,14.676,14.676s14.676-6.572,14.676-14.676V208.839h33.433
	l2.489,98.406v151.531c0,8.104,6.57,14.676,14.676,14.676s14.676-6.572,14.676-14.676v-137h146.792v137
	c0,8.104,6.572,14.676,14.676,14.676c8.104,0,14.676-6.572,14.676-14.676v-92.415h132.816v78.024
	c0,8.104,6.572,14.676,14.676,14.676c8.104,0,14.676-6.572,14.676-14.676v-90.091c0.153-0.848,0.245-1.717,0.245-2.609v-78.761
	v-64.085h20.942c8.104,0,14.676-6.572,14.676-14.676v-73.994C512,112.065,505.43,105.494,497.324,105.494z M446.787,258.248H323.264
	v-49.409h123.522V258.248z M155.294,61.827c14.839-15.192,34.707-23.559,55.944-23.559c21.236,0,41.104,8.367,55.944,23.558
	c14.839,15.192,22.737,35.253,22.24,56.456l-0.038,1.509c0,0.003,0,0.004,0,0.007l-1.871,73.994c0,0.004,0,0.01,0,0.015
	l-0.81,32.015H135.775l-2.719-107.52C132.559,97.074,140.456,77.018,155.294,61.827z M62.435,179.488
	c-1.437-0.47-2.966-0.731-4.558-0.731s-3.123,0.261-4.558,0.731H29.352v-44.642h74.76l1.13,44.642H62.435z M137.825,255.175h146.827
	v37.25H137.825V255.175z M323.264,337.009V287.6h123.522v49.409L323.264,337.009L323.264,337.009z M482.648,179.488h-16.629
	c-1.437-0.47-2.966-0.731-4.558-0.731s-3.122,0.261-4.558,0.731H317.236l1.129-44.642h164.283v44.642H482.648z"/>
<g>
</g>
<g>
</g>
<g>
</g>
<g>
</g>
<g>
</g>
<g>
</g>
<g>
</g>
<g>
</g>
<g>
</g>
<g>
</g>
<g>
</g>
<g>
</g>
<g>
</g>
<g>
</g>
<g>
</g>
</svg>
